<mxfile host="app.diagrams.net" modified="2024-06-22T11:12:09.738Z" agent="Mozilla/5.0 (Macintosh; Intel Mac OS X 10_15_7) AppleWebKit/537.36 (KHTML, like Gecko) Chrome/125.0.0.0 Safari/537.36" etag="bpge3dXps8Wyin_UvGRr" version="24.6.0" type="device">
  <diagram name="Page-1" id="AJFjJkV1zPf08xJIQZtJ">
    <mxGraphModel dx="954" dy="581" grid="1" gridSize="10" guides="1" tooltips="1" connect="1" arrows="1" fold="1" page="1" pageScale="1" pageWidth="850" pageHeight="1100" math="0" shadow="0">
      <root>
        <mxCell id="0" />
        <mxCell id="1" parent="0" />
        <mxCell id="NuMB7gR15EUMEfEV8bZe-2" value="" style="shape=image;verticalLabelPosition=bottom;labelBackgroundColor=default;verticalAlign=top;aspect=fixed;imageAspect=0;image=https://www.researchgate.net/publication/364842359/figure/fig1/AS:11431281092949877@1667061983213/Natural-Language-Processing.jpg;" vertex="1" parent="1">
          <mxGeometry x="120" y="20" width="750" height="560.29" as="geometry" />
        </mxCell>
      </root>
    </mxGraphModel>
  </diagram>
</mxfile>
